<?xml version="1.0" encoding="UTF-8"?>
<svg id="Layer_2" data-name="Layer 2" xmlns="http://www.w3.org/2000/svg" viewBox="0 0 101.05 100.54">
  <defs>
    <style>
      .cls-1 {
        fill: #64ffda;
      }
    </style>
  </defs>
  <g id="Layer_2-2" data-name="Layer 2">
    <g>
      <path class="cls-1" d="M51.18,56.4c-13.64,13.64-27.29,27.28-40.93,40.92-2.18,2.18-5.72,2.18-7.9,0l-.08-.08c-1.93-1.93-1.92-5.06.02-6.97l41.7-41.06c1,.38,2.72,1.18,4.36,2.83,1.64,1.64,2.44,3.36,2.82,4.36h0Z"/>
      <path class="cls-1" d="M6.26,75.23C-4.29,55.31-1.25,31.19,13.47,15.58,26.01,2.28,45.3-3,63.6,1.67c-4,2.93-8,5.85-12,8.78-2.08-.14-19.3-.96-31.76,12.96-12.59,14.07-9.67,31.32-9.3,33.33l14.21-14.26,11.91,2.39c-10.13,10.12-20.27,20.24-30.4,30.36Z"/>
      <path class="cls-1" d="M53.91,19.94c-2.29-.14-5.31-.01-8.65,1.02-9.34,2.88-13.98,10.64-15.24,12.93,4.1.67,13.46,2.78,22.13,10.41,11.14,9.81,13.74,22.22,14.38,26.02,2.06-.96,8.86-4.44,12.42-12.38,2.01-4.48,2.17-8.58,2.07-10.97,3.98-3.68,11.68-11.86,15.48-24.76,2.3-7.79,2.38-14.64,2.04-19.27-3.9-.44-8.65-.55-13.95.31-15.94,2.58-26.38,12.19-30.67,16.69,0,0,0,0-.01,0ZM75.56,17.81c4.2,0,7.6,3.41,7.6,7.6s-3.4,7.6-7.6,7.6-7.6-3.4-7.6-7.6,3.4-7.6,7.6-7.6Z"/>
      <path class="cls-1" d="M84.86,87.65c-15.86,14.45-40.03,17.09-59.76,6.2,10.29-9.96,20.58-19.92,30.87-29.88l2.18,11.94-14.5,13.97c1.99.41,19.2,3.61,33.48-8.74,14.13-12.22,13.59-29.45,13.48-31.53,2.99-3.95,6-7.9,8.99-11.85,4.36,18.37-1.23,37.57-14.75,49.89,0,0,.01,0,.01,0Z"/>
    </g>
  </g>
</svg>